<?xml version="1.0" encoding="UTF-8"?>
<svg xmlns="http://www.w3.org/2000/svg" xmlns:xlink="http://www.w3.org/1999/xlink" width="40pt" height="40pt" viewBox="0 0 40 40" version="1.1">
<g id="surface1">
<path style=" stroke:none;fill-rule:nonzero;fill:rgb(100%,100%,100%);fill-opacity:1;" d="M 39.8125 17.261719 L 36.378906 16.113281 C 35.957031 14.34375 35.261719 12.675781 34.332031 11.167969 L 35.949219 7.929688 C 34.835938 6.472656 33.527344 5.164062 32.074219 4.058594 L 28.835938 5.671875 C 27.328125 4.738281 25.660156 4.035156 23.890625 3.621094 L 22.734375 0.1875 C 21.84375 0.0664062 20.929688 0 20 0 C 19.070312 0 18.15625 0.0664062 17.257812 0.1875 L 16.109375 3.621094 C 14.339844 4.039062 12.671875 4.738281 11.164062 5.667969 L 7.925781 4.050781 C 6.464844 5.160156 5.164062 6.460938 4.054688 7.925781 L 5.667969 11.164062 C 4.734375 12.671875 4.03125 14.339844 3.617188 16.109375 L 0.1875 17.265625 C 0.0664062 18.15625 0 19.070312 0 20 C 0 20.929688 0.0664062 21.84375 0.1875 22.738281 L 3.621094 23.886719 C 4.039062 25.65625 4.738281 27.324219 5.667969 28.832031 L 4.050781 32.070312 C 5.160156 33.53125 6.460938 34.832031 7.921875 35.941406 L 11.160156 34.328125 C 12.667969 35.261719 14.335938 35.964844 16.105469 36.378906 L 17.253906 39.8125 C 18.152344 39.933594 19.066406 40 19.996094 40 C 20.925781 40 21.839844 39.933594 22.734375 39.8125 L 23.882812 36.378906 C 25.65625 35.960938 27.320312 35.261719 28.828125 34.332031 L 32.066406 35.949219 C 33.527344 34.839844 34.828125 33.539062 35.9375 32.074219 L 34.324219 28.835938 C 35.257812 27.328125 35.960938 25.660156 36.375 23.890625 L 39.808594 22.738281 C 39.929688 21.84375 39.996094 20.929688 39.996094 20 C 39.996094 19.070312 39.929688 18.15625 39.808594 17.261719 Z M 20 33.671875 C 12.449219 33.671875 6.328125 27.550781 6.328125 20 C 6.328125 12.449219 12.453125 6.328125 20 6.328125 C 27.546875 6.328125 33.671875 12.453125 33.671875 20 C 33.671875 27.546875 27.546875 33.671875 20 33.671875 Z M 20 33.671875 "/>
</g>
</svg>
