<svg xmlns="http://www.w3.org/2000/svg" fill="white" width="110" height="110" version="1"><g><g><path d="M109.48 47.47l-9.44-3.16c-1.16-4.87-3.07-9.45-5.63-13.6l4.45-8.9C95.8 17.8 92.2 14.2 88.2 11.16l-8.9 4.44c-4.15-2.57-8.73-4.5-13.6-5.64L62.52.52C60.07.18 57.56 0 55 0c-2.56 0-5.07.18-7.54.52L44.3 9.96c-4.87 1.15-9.45 3.07-13.6 5.63l-8.9-4.45c-4.02 3.05-7.6 6.63-10.65 10.66l4.44 8.9c-2.57 4.15-4.5 8.73-5.64 13.6L.52 47.48C.18 49.93 0 52.44 0 55c0 2.56.18 5.07.52 7.53l9.44 3.16c1.15 4.87 3.07 9.45 5.63 13.6l-4.45 8.9c3.05 4.02 6.63 7.6 10.65 10.65l8.9-4.44c4.15 2.57 8.73 4.5 13.6 5.64l3.16 9.44c2.47.34 4.98.52 7.54.52 2.56 0 5.07-.18 7.53-.52l3.16-9.44c4.87-1.15 9.45-3.07 13.6-5.63l8.9 4.45c4.02-3.05 7.6-6.63 10.65-10.66l-4.44-8.9c2.57-4.15 4.5-8.73 5.64-13.6l9.44-3.17c.34-2.46.52-4.97.52-7.53 0-2.56-.18-5.07-.52-7.53zM55 92.6c-20.76 0-37.6-16.84-37.6-37.6S34.25 17.4 55 17.4 92.6 34.25 92.6 55 75.75 92.6 55 92.6z"/></g></g></svg>