<svg xmlns="http://www.w3.org/2000/svg" width="40pt" height="40pt" viewBox="0 0 40 40"><path fill="#fff" d="M39.5 17.13l-3.4-1.15c-.43-1.75-1.12-3.4-2.04-4.9l1.6-3.2c-1.1-1.46-2.4-2.76-3.84-3.85l-3.2 1.6C27.1 4.7 25.45 4 23.7 3.58L22.55.2c-.88-.13-1.78-.2-2.7-.2-.93 0-1.84.07-2.73.2l-1.14 3.4c-1.76.4-3.4 1.1-4.9 2.02l-3.22-1.6c-1.45 1.1-2.74 2.4-3.84 3.84l1.6 3.2C4.7 12.57 4 14.23 3.6 16L.2 17.13c-.13.88-.2 1.8-.2 2.7 0 .94.07 1.84.2 2.73l3.4 1.14c.4 1.76 1.1 3.4 2.02 4.9l-1.6 3.2c1.1 1.47 2.4 2.75 3.84 3.86l3.2-1.6c1.5.92 3.16 1.62 4.92 2.03l1.14 3.4c.9.12 1.8.18 2.72.18.92 0 1.83-.06 2.7-.2l1.16-3.4c1.75-.4 3.4-1.1 4.9-2.02l3.2 1.6c1.46-1.1 2.75-2.4 3.85-3.84l-1.6-3.2c.93-1.5 1.63-3.16 2.04-4.92l3.4-1.14c.1-.9.18-1.8.18-2.72 0-.92-.07-1.83-.2-2.7zM19.83 33.4c-7.5 0-13.56-6.07-13.56-13.56 0-7.5 6.08-13.56 13.56-13.56 7.5 0 13.57 6.08 13.57 13.56 0 7.5-6.07 13.57-13.56 13.57zm0 0"/></svg>